<?xml version="1.0" encoding="UTF-8" standalone="no" ?>
<!DOCTYPE svg PUBLIC "-//W3C//DTD SVG 1.1//EN" "http://www.w3.org/Graphics/SVG/1.1/DTD/svg11.dtd">
<svg xmlns="http://www.w3.org/2000/svg" xmlns:xlink="http://www.w3.org/1999/xlink" version="1.1" width="1280" height="1024" viewBox="0 0 1280 1024" xml:space="preserve">
<desc>Created with Fabric.js 5.3.0</desc>
<defs>
</defs>
<g transform="matrix(1 0 0 1 640 512)" id="background-logo"  >
<rect style="stroke: none; stroke-width: 0; stroke-dasharray: none; stroke-linecap: butt; stroke-dashoffset: 0; stroke-linejoin: miter; stroke-miterlimit: 4; fill: rgb(255,255,255); fill-opacity: 0; fill-rule: nonzero; opacity: 1;"  paint-order="stroke"  x="-640" y="-512" rx="0" ry="0" width="1280" height="1024" />
</g>
<g transform="matrix(1.0332540813179851 0 0 1.0332540813179851 598.9445531456948 346.71871483913026)" id="logo-logo"  >
<g style=""  paint-order="stroke"   >
		<g transform="matrix(0.15808850459006857 0 0 -0.15808850459006857 0.0013213922248382914 -40.01754218101587)"  >
<path style="stroke: none; stroke-width: 1; stroke-dasharray: none; stroke-linecap: butt; stroke-dashoffset: 0; stroke-linejoin: miter; stroke-miterlimit: 4; fill: rgb(0,138,218); fill-rule: nonzero; opacity: 1;"  paint-order="stroke"  transform=" translate(-359.473500577309, -826.4378537091698)" d="M 541.008 584.938 C 537.3670000000001 587.48 535.211 591.629 535.211 596.0699999999999 L 535.211 799.18 C 535.211 888.9179999999999 467.586 963.1129999999999 380.625 973.602 L 389.852 1024.82 C 391.5 1033.97 396.12899999999996 1042.56 403.578 1048.1299999999999 C 412.69899999999996 1054.9299999999998 423.83599999999996 1056.9599999999998 434.58599999999996 1053.8899999999999 C 469.15999999999997 1043.9999999999998 505.871 1059.6799999999998 521.574 1092.02 L 534.391 1118.43 C 538.5229999999999 1126.96 536.5509999999999 1137.7 528.785 1143.1200000000001 C 518.961 1149.98 505.80499999999995 1146.2700000000002 500.79299999999995 1135.94 L 487.852 1109.27 C 480.328 1093.78 462.734 1084.8899999999999 446.26199999999994 1089.92 C 415.52699999999993 1099.3000000000002 380.72999999999996 1087.76 362.2969999999999 1057.98 C 357.2619999999999 1049.84 354.2149999999999 1040.6200000000001 352.5199999999999 1031.2 L 342.23 974.066 C 253.387 965.379 183.723 890.27 183.723 799.18 L 183.723 596.063 C 183.723 591.621 181.56300000000002 587.4689999999999 177.92600000000002 584.9259999999999 C 164.79700000000003 575.7379999999999 156.973 559.492 160.10500000000002 541.7149999999999 C 163.33200000000002 523.41 178.781 508.8669999999999 197.22700000000003 506.6019999999999 C 223.50000000000003 503.3789999999999 245.92600000000004 523.8829999999999 245.92600000000004 549.5229999999999 C 245.92600000000004 564.18 238.57800000000003 577.1209999999999 227.39100000000005 584.9409999999999 C 223.75000000000006 587.4839999999999 221.59400000000005 591.637 221.59400000000005 596.074 L 221.59400000000005 799.18 C 221.59400000000005 877.5079999999999 287.24600000000004 940.785 366.41400000000004 936.8829999999999 C 440.47700000000003 933.227 497.34400000000005 869.328 497.34400000000005 795.18 L 497.34400000000005 596.07 C 497.34400000000005 591.629 495.18000000000006 587.4770000000001 491.53900000000004 584.9300000000001 C 478.41 575.7460000000001 470.57800000000003 559.4960000000001 473.71100000000007 541.715 C 476.93800000000005 523.4100000000001 492.38700000000006 508.867 510.83600000000007 506.60200000000003 C 537.109 503.379 559.5310000000001 523.883 559.5310000000001 549.523 C 559.5310000000001 564.176 552.1880000000001 577.1170000000001 541.008 584.938" stroke-linecap="round" />
</g>
		<g transform="matrix(0.15808850459006857 0 0 -0.15808850459006857 -0.00010149558232797062 -40.44234911974797)"  >
<path style="stroke: none; stroke-width: 1; stroke-dasharray: none; stroke-linecap: butt; stroke-dashoffset: 0; stroke-linejoin: miter; stroke-miterlimit: 4; fill: rgb(0,138,218); fill-rule: nonzero; opacity: 1;"  paint-order="stroke"  transform=" translate(-359.46450000000004, -829.125)" d="M 375.242 809.563 C 375.242 800.859 368.16400000000004 793.781 359.46500000000003 793.781 C 350.766 793.781 343.68800000000005 800.8589999999999 343.68800000000005 809.563 L 343.68800000000005 848.691 C 343.68800000000005 857.395 350.766 864.4730000000001 359.46500000000003 864.4730000000001 C 368.16400000000004 864.4730000000001 375.242 857.3950000000001 375.242 848.691 z M 359.46500000000003 902.34 C 329.88300000000004 902.34 305.81600000000003 878.273 305.81600000000003 848.691 L 305.81600000000003 809.563 C 305.81600000000003 779.98 329.88300000000004 755.91 359.46500000000003 755.91 C 389.043 755.91 413.11300000000006 779.98 413.11300000000006 809.563 L 413.11300000000006 848.691 C 413.11300000000006 878.273 389.04300000000006 902.34 359.46500000000003 902.34" stroke-linecap="round" />
</g>
		<g transform="matrix(0.15808850459006857 0 0 -0.15808850459006857 0 34.62408022279101)"  >
<path style="stroke: none; stroke-width: 1; stroke-dasharray: none; stroke-linecap: butt; stroke-dashoffset: 0; stroke-linejoin: miter; stroke-miterlimit: 4; fill: rgb(0,138,218); fill-rule: nonzero; opacity: 1;"  paint-order="stroke"  transform=" translate(-359.46514201747397, -354.28700000000003)" d="M 674.91 629.875 C 669.957 674.672 632.102 708.574 587.031 708.574 L 562.656 708.574 C 557.957 708.574 554.145 704.766 554.145 700.063 L 554.145 605.09 C 554.145 601.105 556.035 597.477 558.941 594.754 C 573.6560000000001 580.98 581.051 560.617 577.648 539.254 C 573.359 512.352 550.859 490.97700000000003 523.8050000000001 487.77700000000004 C 486.16800000000006 483.33600000000007 454.09000000000003 512.754 454.09000000000003 549.523 C 454.09000000000003 567.23 461.43800000000005 583.566 474.023 595.133 C 476.95700000000005 597.832 478.406 601.789 478.406 605.777 L 478.406 700.0630000000001 C 478.406 704.7660000000001 474.598 708.5740000000001 469.895 708.5740000000001 L 249.039 708.5740000000001 C 244.33999999999997 708.5740000000001 240.527 704.7660000000001 240.527 700.0630000000001 L 240.527 605.1020000000001 C 240.527 601.1170000000001 242.41799999999998 597.484 245.32399999999998 594.7660000000001 C 260.039 580.9960000000001 267.441 560.6370000000001 264.043 539.2700000000001 C 259.762 512.3590000000002 237.258 490.9770000000001 210.199 487.7770000000001 C 172.55900000000003 483.3360000000001 140.48000000000002 512.7540000000001 140.48000000000002 549.5230000000001 C 140.48000000000002 567.2270000000001 147.83200000000002 583.5630000000001 160.406 595.1290000000001 C 163.34 597.8240000000002 164.78900000000002 601.7810000000002 164.78900000000002 605.7660000000001 L 164.78900000000002 700.0630000000001 C 164.78900000000002 704.7660000000001 160.98000000000002 708.5740000000001 156.27700000000002 708.5740000000001 L 131.90200000000002 708.5740000000001 C 86.83200000000002 708.5740000000001 48.97660000000002 674.672 44.01950000000002 629.8750000000001 L 0.382813 114.66 C -4.83984 52.9609 43.8281 0 105.746 0 L 613.184 0 C 675.105 0 723.7729999999999 52.9609 718.547 114.66 L 674.91 629.875" stroke-linecap="round" />
</g>
</g>
</g>
<g transform="matrix(1.9211538461538462 0 0 1.9211538461538462 598.9625727243142 399.3383765346814)" id="tagline-177f4949-be83-4eb9-af43-1b27e4c1fc6c-logo"  >
<g style=""  paint-order="stroke"   >
		<g transform="matrix(1 0 0 1 0 0)" id="tagline-177f4949-be83-4eb9-af43-1b27e4c1fc6c-logo-path-0"  >
<path style="stroke: none; stroke-width: 0; stroke-dasharray: none; stroke-linecap: butt; stroke-dashoffset: 0; stroke-linejoin: miter; stroke-miterlimit: 4; fill: rgb(239,245,255); fill-rule: nonzero; opacity: 1;"  paint-order="stroke"  transform=" translate(-15.909999999999998, 13.13)" d="M 1.28 -26.26 L 12.53 0 L 19.28 0 L 30.54 -26.26 L 23.97 -26.26 L 15.91 -7.43 L 7.84 -26.26 Z" stroke-linecap="round" />
</g>
</g>
</g>
</svg>